<svg id="Capa_1" data-name="Capa 1" xmlns="http://www.w3.org/2000/svg" viewBox="0 0 705.56 666.12"><defs><style>.cls-1{fill:#b7bfc5;}.cls-2{fill:#212b36;}</style></defs><rect class="cls-1" x="34.18" y="33.9" width="637.2" height="598.32" rx="57.6"/><path class="cls-2" d="M447.05,268.8a46.91,46.91,0,0,0-6.3-23.5l68.78-77.7c30.19,13.4,66.06-10.23,65.52-43.4a47.19,47.19,0,0,0-47.14-47.13c-35.74-.51-59.08,40.13-40.83,70.62L418.3,225.4c-18.55-8.41-42.85-2-54.89,13.62L319,222.3a47.18,47.18,0,0,0-47.08-48.84c-31.56-.57-55.17,32.38-44.71,62l-56.64,42.66c-30.47-21.5-74.15,1.28-73.79,38.85a47.19,47.19,0,0,0,47.14,47.13c31.55.57,55.17-32.38,44.7-62l56.65-42.65c19.35,14,48.76,9.49,63.15-9.08l44.4,16.72c.31,63.62,91.59,65.25,94.23,1.71Z"/><path class="cls-2" d="M322.78,366.26h-75.5a15,15,0,0,0-15,15v207.8h105.5V381.26a15,15,0,0,0-15-15Z"/><path class="cls-2" d="M593.78,269.86h-75.5a15,15,0,0,0-15,15v304.2h90.5a15,15,0,0,0,15-15V284.86a15,15,0,0,0-15-15Z"/><path class="cls-2" d="M458.28,414.46h-75.5a15,15,0,0,0-15,15v159.6h105.5V429.46a15,15,0,0,0-15-15Z"/><path class="cls-2" d="M187.28,462.66h-75.5a15,15,0,0,0-15,15v96.4a15,15,0,0,0,15,15h90.5V477.66A15,15,0,0,0,187.28,462.66Z"/></svg>