<svg id="Layer_1" data-name="Layer 1" xmlns="http://www.w3.org/2000/svg" viewBox="0 0 593 574"><defs><style>.cls-1{fill:#b7bfc5;}.cls-2{fill:#212b36;fill-rule:evenodd;}</style></defs><rect class="cls-1" x="18" y="25" width="557" height="507" rx="57"/><path class="cls-2" d="M69.87,252.67H267.32c6.68,0,12.13,4.53,12.13,10.09V456.33c0,5.56-5.45,10.09-12.13,10.09H69.87c-6.67,0-12.12-4.53-12.12-10.09V262.75C57.75,257.2,63.2,252.67,69.87,252.67Z"/><path class="cls-2" d="M523.13,466.42H325.68c-6.68,0-12.13-4.53-12.13-10.09V262.75c0-5.55,5.45-10.09,12.13-10.09H523.13c6.67,0,12.12,4.54,12.12,10.09V456.33C535.25,461.89,529.8,466.42,523.13,466.42Z"/><path class="cls-2" d="M523.13,218.48H69.87c-6.67,0-12.12-4.3-12.12-9.57V100.15c0-5.27,5.45-9.57,12.12-9.57H523.13c6.67,0,12.12,4.3,12.12,9.57V208.91C535.25,214.18,529.8,218.48,523.13,218.48Z"/></svg>