<svg id="Layer_1" data-name="Layer 1" xmlns="http://www.w3.org/2000/svg" viewBox="0 0 512 512"><defs><style>.cls-1{fill:#b7bfc5;}.cls-2{fill:#212b36;fill-rule:evenodd;}</style></defs><rect class="cls-1" x="30" y="21.4" width="452" height="445" rx="47.85"/><g id="Layer_1-2" data-name="Layer_1"><path class="cls-2" d="M241.74,452.2a5,5,0,0,1-1.87-.37,4.89,4.89,0,0,1-3-4.51V398.57H207.61a21.92,21.92,0,0,1-21.9-21.88V248.38H304.39a31.69,31.69,0,0,0,31.66-31.66V195.57H437.14A21.91,21.91,0,0,1,459,217.45V376.69a21.91,21.91,0,0,1-21.89,21.88H297.39l-52.2,52.2a4.88,4.88,0,0,1-3.45,1.43Zm19.81-131.15H235.8A11.12,11.12,0,0,1,224.7,310V284.2a11.11,11.11,0,0,1,11.1-11.1h25.75a11.11,11.11,0,0,1,11.1,11.1V310A11.12,11.12,0,0,1,261.55,321.05ZM235.8,282.86a1.35,1.35,0,0,0-1.33,1.34V310a1.35,1.35,0,0,0,1.33,1.33h25.75a1.35,1.35,0,0,0,1.33-1.33V284.2a1.35,1.35,0,0,0-1.33-1.34Zm99.45,38.19H309.5A11.12,11.12,0,0,1,298.4,310V284.2a11.11,11.11,0,0,1,11.1-11.1h25.75a11.11,11.11,0,0,1,11.1,11.1V310A11.12,11.12,0,0,1,335.25,321.05ZM309.5,282.86a1.35,1.35,0,0,0-1.34,1.34V310a1.35,1.35,0,0,0,1.34,1.33h25.75a1.35,1.35,0,0,0,1.34-1.33V284.2a1.35,1.35,0,0,0-1.34-1.34ZM409,321.05H383.2A11.12,11.12,0,0,1,372.1,310V284.2a11.11,11.11,0,0,1,11.1-11.1H409a11.11,11.11,0,0,1,11.1,11.1V310A11.12,11.12,0,0,1,409,321.05ZM383.2,282.86a1.36,1.36,0,0,0-1.34,1.34V310a1.36,1.36,0,0,0,1.34,1.33H409a1.35,1.35,0,0,0,1.33-1.33V284.2a1.35,1.35,0,0,0-1.33-1.34Z"/><path class="cls-2" d="M109,292.23a5,5,0,0,1-1.87-.37,4.89,4.89,0,0,1-3-4.51V238.61H74.86A21.92,21.92,0,0,1,53,216.72V57.48A21.91,21.91,0,0,1,74.86,35.6H304.39a21.91,21.91,0,0,1,21.9,21.88V216.72a21.92,21.92,0,0,1-21.9,21.89H164.64l-52.2,52.19A4.88,4.88,0,0,1,109,292.23Zm72.85-135.88a4.89,4.89,0,0,1-2.72-.81,6,6,0,0,1-.74-.61h0l-13.17-13.16a4.89,4.89,0,0,1,6.91-6.91l9.72,9.72,25.29-25.29a4.88,4.88,0,0,1,6.91,6.9l-28.75,28.75h0a4.59,4.59,0,0,1-.85.69h0a4.47,4.47,0,0,1-1.2.54h0a4.87,4.87,0,0,1-1.37.19Zm7.79,31.42A50.67,50.67,0,1,1,240.3,137.1,50.72,50.72,0,0,1,189.63,187.77Zm0-91.58a40.92,40.92,0,1,0,40.91,40.91A41,41,0,0,0,189.63,96.19Zm0,116.32A75.41,75.41,0,1,1,265,137.1,75.5,75.5,0,0,1,189.63,212.51Zm0-141a65.65,65.65,0,1,0,65.64,65.64A65.72,65.72,0,0,0,189.63,71.46Z"/></g></svg>