<svg id="Layer_1" data-name="Layer 1" xmlns="http://www.w3.org/2000/svg" viewBox="0 0 512 512"><defs><style>.cls-1{fill:#212b36;stroke:#212b36;stroke-miterlimit:10;stroke-width:7px;}.cls-2{fill:#b7bfc5;}</style></defs><path class="cls-1" d="M329.06,121.18a62.64,62.64,0,0,0-58.92,41.71,15,15,0,0,1-28.28,0,62.64,62.64,0,0,0-58.92-41.71c-34.26,0-62.32,28.11-62.56,62.67-.19,27.19,23.8,60.53,69.38,96.4A552,552,0,0,0,256,324.48,557.22,557.22,0,0,0,322.14,280c45.27-35.83,69.29-69.15,69.48-96.37a61.31,61.31,0,0,0-18-43.91A62.46,62.46,0,0,0,329.06,121.18Z"/><path class="cls-2" d="M440.52,0h-369A71.68,71.68,0,0,0,0,71.72V359.38a71.69,71.69,0,0,0,71.48,71.73H279.2l7,67.39A15,15,0,0,0,310.06,509l104.17-77.91h26.29A71.69,71.69,0,0,0,512,359.38V71.72A71.69,71.69,0,0,0,440.52,0ZM340.41,303.81A570.82,570.82,0,0,1,263,354.89a15,15,0,0,1-14,0,568.34,568.34,0,0,1-77.8-51.09C117.32,261.41,90.12,221,90.38,183.64a92.86,92.86,0,0,1,27.21-65.34A91.71,91.71,0,0,1,183,91.18,92.64,92.64,0,0,1,256,127a92.58,92.58,0,0,1,138.92-8.43,91.09,91.09,0,0,1,26.7,65.26C421.36,221.08,394,261.44,340.41,303.81Z"/></svg>