<svg id="Capa_1" data-name="Capa 1" xmlns="http://www.w3.org/2000/svg" viewBox="0 0 524.87 445"><defs><style>.cls-1{fill:#b7bfc5;}.cls-2{fill:#212b36;}</style></defs><rect class="cls-1" x="44.9" width="452" height="445" rx="47.85"/><path class="cls-2" d="M231.19,177.83h1a84.11,84.11,0,1,0-1,0Z"/><path class="cls-2" d="M398.37,312.62a36,36,0,1,0,35.53,36.57v-1A36.05,36.05,0,0,0,398.37,312.62Z"/><path class="cls-2" d="M323.14,291.72a104.88,104.88,0,0,1,14.63-15.67l-1-17.24,20.9-9.4a119.2,119.2,0,0,0-48.06-24,142.09,142.09,0,0,1-77.85,23.51,132.67,132.67,0,0,1-76.28-23.51,135.32,135.32,0,0,0-99.78,129v5.75h249.2a133.35,133.35,0,0,1-.52-20.38L291.27,328.3l14.63-37.1Z"/><path class="cls-2" d="M475.17,363.3v-4.18a80.84,80.84,0,0,0-.52-25.08l-1-4.18,11-9.92-7.32-16.72-14.63,1-2.61-3.13a79.17,79.17,0,0,0-17.76-17.24l-3.66-2.62V266.65l-16.19-6.27-9.41,11h-4.18a80.84,80.84,0,0,0-25.08.52h-4.18l-9.92-10.45L353,268.76l1.57,14.63L350.9,286a79.17,79.17,0,0,0-17.24,17.76l-2.09,3.66H316.35l-6.26,16.16,11,9.91v4.18a81.14,81.14,0,0,0,.52,25.08l1,3.65-11,10.45,7.31,16.2L333.55,392l2.61,3.66a71.43,71.43,0,0,0,18.29,17.24L358.1,415v15.15l16.72,6.27,9.41-11h4.18a81.08,81.08,0,0,0,25.07-.52l4.18-1,8.89,11.5L443.26,428l-1-14.62,3.13-2.62a71.77,71.77,0,0,0,17.25-18.28l2.61-3.66h14.63l6.27-16.72Zm-76.8,36.57a51.72,51.72,0,1,1,51.2-52.24v.52a51.73,51.73,0,0,1-51.2,51.72Z"/></svg>