<svg id="Layer_1" data-name="Layer 1" xmlns="http://www.w3.org/2000/svg" viewBox="0 0 598 555"><defs><style>.cls-1{fill:#b7bfc5;}.cls-2{fill:#212b36;}</style></defs><rect class="cls-1" x="28" y="13" width="542" height="529" rx="47.85"/><g id="Glyph"><g id="Glyph-2"><path class="cls-2" d="M538.45,285.73a54.19,54.19,0,0,0,8.2-64.76l-99-171.52a54,54,0,0,0-73.76-19.76L81,198.73a6,6,0,0,0,4.2,11.08,68,68,0,0,1,13-1.28h364a66.07,66.07,0,0,1,66,66v7a6,6,0,0,0,10.28,4.2Zm-177.24-89.2H236.41L448.09,74.29l31.2,54Z"/><path class="cls-2" d="M98.17,532.53h364a54.06,54.06,0,0,0,54-54v-204a54.06,54.06,0,0,0-54-54h-364a54.07,54.07,0,0,0-54,54v204A54.06,54.06,0,0,0,98.17,532.53Zm298-98h52a14,14,0,1,1,0,28h-52a14,14,0,0,1,0-28Zm-144,0h56a14,14,0,1,1,0,28h-56a14,14,0,1,1,0-28Zm-154-136a24,24,0,0,1,24-24h28a24,24,0,0,1,24,24v28a24,24,0,0,1-24,24h-28a24,24,0,0,1-24-24Zm14,136h52a14,14,0,0,1,0,28h-52a14,14,0,1,1,0-28Z"/></g></g></svg>